<svg width="445" height="610" viewBox="0 0 445 610" fill="none" xmlns="http://www.w3.org/2000/svg">
<path d="M406.234 139.815H403.002V51.2557C403.002 44.5248 401.676 37.8597 399.1 31.641C396.525 25.4224 392.749 19.772 387.99 15.0125C383.231 10.253 377.581 6.47748 371.363 3.90163C365.144 1.32578 358.48 8.49324e-06 351.749 1.25132e-10H164.134C150.541 -3.0017e-05 137.505 5.40008 127.893 15.0124C118.281 24.6246 112.881 37.6617 112.881 51.2556V537.099C112.881 550.693 118.281 563.73 127.893 573.342C137.504 582.954 150.541 588.354 164.134 588.354H351.749C365.342 588.354 378.378 582.954 387.99 573.342C397.602 563.73 403.002 550.693 403.002 537.099V202.853H406.234L406.234 139.815Z" fill="#CCCCCC"/>
<path d="M392.093 51.6134V536.741C392.093 546.894 388.06 556.63 380.882 563.809C373.703 570.987 363.968 575.02 353.816 575.02H165.301C155.15 575.02 145.414 570.987 138.235 563.809C131.057 556.63 127.024 546.894 127.024 536.741V51.6134C127.024 41.4612 131.057 31.7249 138.235 24.5463C145.414 17.3676 155.15 13.3346 165.301 13.3344H188.17C187.047 16.096 186.619 19.0914 186.924 22.0572C187.23 25.0229 188.259 27.8682 189.922 30.3426C191.585 32.8171 193.831 34.8449 196.462 36.2477C199.093 37.6505 202.028 38.3853 205.009 38.3875H312.491C315.473 38.3853 318.408 37.6505 321.038 36.2476C323.669 34.8448 325.915 32.817 327.578 30.3426C329.241 27.8681 330.271 25.0229 330.576 22.0571C330.882 19.0914 330.454 16.096 329.33 13.3344H353.816C363.968 13.3346 373.703 17.3676 380.882 24.5463C388.06 31.7249 392.093 41.4612 392.093 51.6134Z" fill="white"/>
<path d="M237.969 223.123C227.956 218.523 221.374 205.37 221.749 192.399C222.124 179.428 228.949 167.297 238.363 161.111C247.778 154.925 259.4 154.457 269.503 158.758C279.607 163.059 293.172 164.23 299.245 174.92C303.912 183.136 302.231 201.463 298.927 210.598C296.071 218.493 289.088 222.942 282.278 225.431C274.741 228.162 266.705 229.242 258.714 228.598C250.723 227.954 242.964 225.602 235.961 221.7L237.969 223.123Z" fill="#2F2E41"/>
<path d="M294.988 373.682L290.76 356.447L290.461 355.21C290.22 354.25 289.728 353.373 289.034 352.668C288.341 351.963 287.471 351.456 286.516 351.2L282.297 350.068L278.554 349.058L270.478 346.891H270.47L254.149 342.509L239.703 338.621L236.211 337.683L226.615 335.104L220.649 333.503L211.393 331.022L210.65 330.819C209.364 330.478 207.998 330.607 206.799 331.183C205.599 331.76 204.646 332.746 204.11 333.964C203.706 334.894 203.31 335.84 202.921 336.802C198.2 348.729 194.622 361.078 192.235 373.682C192.13 374.216 192.016 374.757 191.919 375.299H277.608C277.608 375.396 277.608 375.485 277.616 375.582C277.762 375.493 277.907 375.404 278.053 375.299H295.384L294.988 373.682Z" fill="#2F2E41"/>
<path d="M280.106 226.538C291.949 214.694 291.949 195.491 280.106 183.647C268.262 171.803 249.06 171.803 237.217 183.647C225.373 195.491 225.373 214.694 237.217 226.538C249.06 238.382 268.262 238.382 280.106 226.538Z" fill="#FFB8B8"/>
<path d="M291.01 364.281C287.853 367.8 284.312 370.953 280.452 373.683C279.668 374.241 278.868 374.782 278.051 375.3C277.906 375.405 277.76 375.494 277.615 375.583C277.607 375.486 277.607 375.397 277.607 375.3H208.134C207.994 375.185 207.862 375.06 207.738 374.928C207.302 374.54 206.873 374.111 206.461 373.683C203.74 370.899 201.441 367.731 199.638 364.281L208.126 340.279L211.392 331.022L216.137 317.619L221.246 303.156C220.802 301.818 220.441 300.455 220.163 299.073V299.065C215.321 274.505 239.152 250.673 239.152 250.673C239.338 250.527 239.524 250.39 239.71 250.261C242.007 248.563 244.501 247.152 247.139 246.057C258.311 241.425 270.008 243.292 277.882 245.685C280.618 246.507 283.292 247.523 285.884 248.725C286.806 249.161 287.307 249.436 287.307 249.436L288.091 273.171L289.159 305.622L289.733 323.722L290.452 346.56L290.759 356.447L291.01 364.281Z" fill="#925DF7"/>
<path d="M325.149 373.682L317.518 334.918L316.451 329.502L321.608 306.413L319.191 294.133L310.178 248.336C309.956 247.233 309.407 246.223 308.602 245.437C307.798 244.651 306.775 244.125 305.667 243.93L294.641 242.03L284.398 240.26C283.411 240.083 282.395 240.179 281.459 240.538C280.523 240.897 279.703 241.505 279.087 242.297C278.313 243.256 277.888 244.451 277.883 245.684C277.885 246.446 278.042 247.2 278.344 247.899C285.821 265.337 283.024 297.027 280.324 327.667C280.243 328.564 280.162 329.461 280.09 330.359C279.524 336.729 278.99 343.002 278.554 349.058C278.408 351.071 278.279 353.067 278.158 355.032C277.762 361.58 277.535 367.845 277.584 373.682C277.584 374.224 277.592 374.765 277.608 375.299C277.608 375.396 277.608 375.485 277.616 375.582C277.762 375.493 277.907 375.404 278.053 375.299H325.464L325.149 373.682Z" fill="#2F2E41"/>
<path d="M247.14 246.056C246.917 245.156 246.473 244.325 245.848 243.64C245.223 242.955 244.437 242.437 243.561 242.132C242.685 241.828 241.747 241.747 240.832 241.897C239.917 242.047 239.053 242.424 238.321 242.992L235.515 245.539L214.231 264.917C213.628 265.461 213.154 266.132 212.84 266.881C210.86 271.627 207.165 280.56 202.8 291.684C201.256 295.629 199.623 299.857 197.95 304.263C195.161 311.611 204.49 322.865 201.693 330.836C201.208 332.234 200.693 333.609 200.149 334.959C194.482 349.227 186.43 361.281 183.65 373.682C183.528 374.224 183.407 374.765 183.294 375.299H214.085C214.126 375.178 214.166 375.057 214.207 374.927C214.328 374.515 214.457 374.103 214.586 373.682C216.858 366.269 219.396 358.128 222.072 349.575C222.444 348.395 222.816 347.206 223.188 346.01C224.311 342.428 225.454 338.793 226.615 335.104C226.777 334.571 226.947 334.037 227.116 333.503C227.504 332.258 227.895 331.013 228.289 329.769C228.806 328.136 229.323 326.497 229.841 324.853C231.183 320.585 232.533 316.292 233.883 312.024C239.355 294.65 238.159 277.94 242.282 264.601C242.346 264.407 242.403 264.221 242.459 264.035C244.23 258.296 245.79 253.203 247.051 248.958C247.338 248.016 247.368 247.014 247.14 246.056Z" fill="#2F2E41"/>
<path d="M280.223 167.343C281.315 167.502 282.429 167.297 283.393 166.759C284.356 166.221 285.116 165.381 285.553 164.368C285.958 163.341 286.122 162.236 286.033 161.136C285.944 160.036 285.605 158.972 285.04 158.023C283.892 156.134 282.289 154.562 280.378 153.45C278.177 151.979 275.632 151.104 272.992 150.909C271.675 150.823 270.354 151.021 269.12 151.489C267.886 151.958 266.766 152.686 265.838 153.625C264.933 154.587 264.335 155.798 264.121 157.102C263.907 158.406 264.087 159.744 264.638 160.945C265.747 163.083 268.074 164.282 270.341 165.097C274.839 166.708 279.629 167.337 284.39 166.942L280.223 167.343Z" fill="#2F2E41"/>
<path d="M291.008 200.046C286.283 201.423 286.54 198.876 283.949 194.691C281.358 190.506 277.99 185.582 273.075 185.844C269.048 186.058 266.242 189.717 263.372 192.551C258.254 197.601 250.826 200.798 243.805 199.257C236.783 197.715 230.993 190.471 232.536 183.449C233.4 179.515 236.31 176.244 239.797 174.229C243.283 172.213 247.31 171.326 251.31 170.862C260.223 169.838 269.251 170.783 277.759 173.629C283.631 175.599 289.535 178.787 292.458 184.248C295.38 189.71 297.939 197.613 292.243 200.046H291.008Z" fill="#2F2E41"/>
<path d="M368.688 204.834V232.652C368.147 232.79 367.613 232.919 367.072 233.032C363.175 233.897 359.206 234.471 355.261 234.948C349.142 235.692 342.861 236.242 336.895 234.714C328.552 232.58 321.568 226.419 317.332 218.909C313.104 211.407 311.439 202.66 311.374 194.042C311.326 187.332 312.199 180.614 311.738 173.92C311.269 167.226 309.256 160.298 304.406 155.666C299.556 151.026 291.359 149.506 286.039 153.588C285.137 154.318 284.286 155.11 283.493 155.957C282.465 157.106 281.255 158.078 279.912 158.835C277.503 160.048 273.695 159.102 273.534 156.41L276.056 151.697C275.975 151.592 275.886 151.478 275.805 151.373C272.111 146.28 273.655 138.527 278.222 134.154C282.887 129.675 289.831 128.285 296.265 128.85C302.647 129.492 308.747 131.802 313.955 135.546C319.162 139.291 323.293 144.339 325.933 150.185C330.007 159.49 329.967 170.137 333.653 179.612C335.639 184.646 338.622 189.226 342.423 193.079C346.224 196.931 350.764 199.976 355.77 202.029C359.384 203.48 363.192 204.387 367.072 204.721C367.613 204.77 368.147 204.802 368.688 204.834Z" fill="#2F2E41"/>
<path d="M270.816 324.567H270.473V315.174C270.473 313.733 269.9 312.35 268.881 311.33C267.862 310.311 266.479 309.738 265.037 309.738H245.14C244.426 309.738 243.719 309.879 243.059 310.152C242.4 310.425 241.801 310.826 241.296 311.33C240.791 311.835 240.391 312.434 240.118 313.094C239.844 313.753 239.704 314.46 239.704 315.174V366.701C239.704 368.143 240.277 369.525 241.296 370.545C242.315 371.564 243.698 372.137 245.14 372.137H265.037C265.751 372.137 266.458 371.996 267.118 371.723C267.777 371.45 268.376 371.05 268.881 370.545C269.386 370.04 269.786 369.441 270.059 368.781C270.332 368.122 270.473 367.415 270.473 366.701V331.252H270.816V324.567Z" fill="#3F3D56"/>
<path d="M255.26 335.648C258.67 335.648 261.434 332.884 261.434 329.474C261.434 326.064 258.67 323.3 255.26 323.3C251.85 323.3 249.086 326.064 249.086 329.474C249.086 332.884 251.85 335.648 255.26 335.648Z" fill="white"/>
<path d="M252.621 345.929C252.475 345.751 252.314 345.581 252.152 345.412C250.818 344.044 249.213 342.972 247.439 342.265C245.665 341.557 243.762 341.23 241.853 341.305C241.246 341.336 240.641 341.406 240.042 341.515L239.703 341.175L236.211 337.683L228.289 329.769L223.374 324.853L216.139 317.618L210.706 312.193L208.596 310.083L212.323 295.491L202.8 291.684L190.392 286.728L190.198 286.647L189.737 287.908L186.422 297.1L183.949 303.931C182.509 307.967 182.264 312.332 183.243 316.504C184.222 320.675 186.385 324.475 189.47 327.448C190.174 328.125 190.922 328.755 191.709 329.332L200.149 334.959L202.921 336.802L208.127 340.278L216.721 346.01L222.072 349.575L228.863 354.102C228.831 354.546 228.823 354.991 228.838 355.436C228.918 357.345 229.398 359.216 230.249 360.926C231.101 362.637 232.303 364.149 233.777 365.364C235.543 366.834 237.66 367.823 239.921 368.233H239.929C242.762 368.756 245.687 368.371 248.288 367.134C250.004 366.305 251.526 365.125 252.759 363.672C253.991 362.218 254.905 360.522 255.442 358.694C255.721 357.773 255.894 356.824 255.959 355.865C256.095 354.069 255.87 352.265 255.296 350.559C254.723 348.852 253.813 347.278 252.621 345.929Z" fill="#FFB8B8"/>
<path d="M332.368 310.213L331.123 302.743L329.344 292.096L319.191 294.133L305.99 296.785L307.017 311.813L306.257 312.339L289.734 323.721L280.09 330.359L270.478 336.98L270.47 336.988L270.397 337.036C269.832 336.816 269.251 336.638 268.659 336.503C266.796 336.081 264.865 336.055 262.992 336.429C261.119 336.802 259.345 337.565 257.786 338.669C256.332 339.696 255.095 341.001 254.149 342.509C253.479 343.571 252.964 344.722 252.621 345.929C252.398 346.693 252.241 347.475 252.152 348.265C251.946 350.137 252.132 352.031 252.699 353.826C253.265 355.622 254.199 357.28 255.442 358.694C256.976 360.462 258.947 361.797 261.157 362.566C264.177 363.635 267.479 363.592 270.47 362.445H270.478C271.089 362.217 271.681 361.941 272.248 361.62C274.899 360.146 276.979 357.827 278.158 355.032C278.475 354.296 278.724 353.533 278.901 352.752C278.996 352.317 279.069 351.877 279.12 351.434L282.297 350.068L290.453 346.56L317.518 334.918L320.137 333.794C322.372 332.717 324.406 331.265 326.151 329.502C328.641 327.008 330.502 323.96 331.583 320.606C332.664 317.253 332.933 313.69 332.368 310.213Z" fill="#FFB8B8"/>
<path d="M241.578 254.73C241.171 253.159 240.543 251.654 239.711 250.26C238.625 248.434 237.201 246.831 235.515 245.539C234.805 244.994 234.053 244.505 233.268 244.075C229.299 241.899 224.629 241.388 220.283 242.653C215.937 243.919 212.272 246.859 210.092 250.826L190.392 286.728L189.737 287.908L185.137 296.3L186.422 297.1L197.95 304.263L210.706 312.193L211.603 312.751L220.164 299.073V299.064L239.533 268.094C240.278 266.907 240.875 265.634 241.312 264.302C241.368 264.116 241.425 263.922 241.481 263.736C242.326 260.798 242.36 257.686 241.578 254.73Z" fill="#2F2E41"/>
<path d="M316.03 252.111C314.453 247.997 311.347 244.651 307.361 242.772C303.375 240.894 298.818 240.628 294.641 242.03C294.115 242.208 293.598 242.41 293.088 242.636C290.161 243.944 287.663 246.055 285.886 248.724C285.168 249.792 284.577 250.939 284.124 252.144C283.323 254.239 282.944 256.472 283.011 258.714C283.078 260.957 283.588 263.164 284.512 265.208L288.093 273.171L305.772 312.525L306.257 312.339L321.608 306.413L331.123 302.743L334.841 301.312L316.03 252.111Z" fill="#2F2E41"/>
<path d="M231.602 453.717H173.398C169.432 453.717 165.628 452.141 162.823 449.337C160.019 446.532 158.443 442.728 158.443 438.761C158.443 434.795 160.019 430.991 162.823 428.186C165.628 425.381 169.432 423.805 173.398 423.805H231.602C235.568 423.805 239.372 425.381 242.177 428.186C244.981 430.991 246.557 434.795 246.557 438.761C246.557 442.728 244.981 446.532 242.177 449.337C239.372 452.141 235.568 453.717 231.602 453.717Z" fill="#925DF7"/>
<path d="M347.265 453.717H289.062C285.095 453.717 281.291 452.141 278.487 449.337C275.682 446.532 274.106 442.728 274.106 438.761C274.106 434.795 275.682 430.991 278.487 428.186C281.291 425.381 285.095 423.805 289.062 423.805H347.265C351.231 423.805 355.035 425.381 357.84 428.186C360.645 430.991 362.22 434.795 362.22 438.761C362.22 442.728 360.645 446.532 357.84 449.337C355.035 452.141 351.231 453.717 347.265 453.717Z" fill="#E6E6E6"/>
<path d="M354.946 119.028H164.168C160.524 119.033 157.032 120.483 154.456 123.059C151.88 125.635 150.43 129.128 150.425 132.771V361.556C150.43 365.199 151.88 368.692 154.456 371.268C157.032 373.844 160.524 375.294 164.168 375.299H354.946C358.589 375.295 362.083 373.846 364.659 371.27C367.236 368.693 368.685 365.2 368.688 361.556V132.771C368.685 129.128 367.236 125.634 364.659 123.058C362.083 120.481 358.589 119.032 354.946 119.028ZM367.072 361.556C367.068 364.771 365.789 367.853 363.516 370.126C361.243 372.399 358.161 373.678 354.946 373.682H164.168C160.953 373.678 157.871 372.399 155.598 370.126C153.325 367.853 152.046 364.771 152.042 361.556V132.771C152.046 129.556 153.325 126.474 155.598 124.201C157.871 121.928 160.953 120.649 164.168 120.645H354.946C358.161 120.649 361.243 121.928 363.516 124.201C365.789 126.474 367.068 129.556 367.072 132.771V361.556Z" fill="#3F3D56"/>
<path d="M202.467 180.495C201.781 180.492 201.102 180.354 200.47 180.088C199.838 179.821 199.265 179.432 198.784 178.942L174.21 146.87C173.642 146.133 172.913 145.536 172.079 145.124C171.245 144.713 170.328 144.497 169.397 144.494H27.0808C19.8985 144.494 13.0104 141.641 7.93176 136.562C2.85313 131.483 -1.28637e-05 124.595 0 117.412C1.28638e-05 110.229 2.85316 103.341 7.93181 98.262C13.0105 93.1831 19.8986 90.3298 27.0809 90.3298H204.925C211.476 90.3299 217.806 92.7051 222.74 97.0151C227.674 101.325 230.879 107.278 231.76 113.77C232.641 120.262 231.139 126.854 227.532 132.323C223.925 137.792 218.458 141.769 212.144 143.515C210.877 143.874 209.763 144.638 208.97 145.689C208.178 146.74 207.751 148.022 207.754 149.339V175.226C207.765 176.268 207.462 177.289 206.883 178.155C206.304 179.021 205.477 179.693 204.511 180.081C203.863 180.352 203.169 180.493 202.467 180.495Z" fill="#2F2E41"/>
<path d="M35.4652 129.031C41.8816 129.031 47.0831 123.829 47.0831 117.412C47.0831 110.995 41.8816 105.794 35.4652 105.794C29.0488 105.794 23.8473 110.995 23.8473 117.412C23.8473 123.829 29.0488 129.031 35.4652 129.031Z" fill="#4ED199"/>
<path d="M71.5419 129.031C77.9583 129.031 83.1598 123.829 83.1598 117.412C83.1598 110.995 77.9583 105.794 71.5419 105.794C65.1255 105.794 59.924 110.995 59.924 117.412C59.924 123.829 65.1255 129.031 71.5419 129.031Z" fill="#4ED199"/>
<path d="M107.619 129.031C114.035 129.031 119.236 123.829 119.236 117.412C119.236 110.995 114.035 105.794 107.619 105.794C101.202 105.794 96.0007 110.995 96.0007 117.412C96.0007 123.829 101.202 129.031 107.619 129.031Z" fill="#4ED199"/>
<path d="M69.4497 554.284C85.0426 572.352 109.287 578.865 133.278 582.835C136.628 583.39 139.96 583.904 143.275 584.379C143.296 584.378 143.321 584.386 143.343 584.386C143.502 584.408 143.661 584.431 143.813 584.457C144.496 584.555 145.181 584.652 145.858 584.747L145.63 585.009C145.63 585.009 145.417 585.289 145.668 585.021C145.742 584.94 145.822 584.861 145.896 584.78C154.549 575.605 163.245 566.026 167.692 554.251C172.301 542.027 171.219 526.68 161.605 517.833C160.344 516.675 158.957 515.662 157.471 514.811C156.855 514.451 156.222 514.127 155.576 513.82C151.636 511.902 147.256 511.068 142.887 511.403C138.518 511.739 134.317 513.233 130.716 515.73C127.116 518.228 124.245 521.64 122.401 525.615C120.556 529.589 119.803 533.984 120.219 538.347C113.117 526.454 118.609 511.226 124.978 498.924C131.352 486.624 138.764 473.013 134.957 459.688C132.844 452.272 127.349 446.672 120.485 443.304C120.274 443.203 120.064 443.102 119.851 443.008C111.626 439.192 102.265 438.619 93.6374 441.405C77.6797 446.831 66.5973 461.701 60.4075 477.382C50.4422 502.616 51.7218 533.739 69.4497 554.284Z" fill="#FF6C5F"/>
<path d="M85.5338 513.86C84.7041 519.753 84.7382 525.735 85.6349 531.619C86.5084 536.844 88.1581 541.909 90.5293 546.646C95.3533 556.407 102.842 564.667 111.588 571.069C118.294 575.889 125.581 579.843 133.278 582.835C136.628 583.39 139.961 583.904 143.275 584.379C143.296 584.378 143.322 584.386 143.343 584.386C143.502 584.408 143.661 584.431 143.813 584.457C144.496 584.555 145.181 584.652 145.858 584.747C145.858 584.747 145.417 585.288 145.668 585.02C145.742 584.94 145.823 584.861 145.896 584.78C141.351 577.411 138.637 569.059 137.984 560.425C137.33 551.792 138.755 543.127 142.14 535.157C145.576 527.262 150.829 520.29 157.471 514.811C156.855 514.451 156.222 514.127 155.576 513.82C153.033 515.983 150.685 518.367 148.562 520.944C140.957 530.126 136.51 541.512 135.88 553.418C135.362 564.205 137.932 574.915 143.289 584.293C142.67 584.098 142.047 583.895 141.439 583.689C129.9 579.878 118.752 574.538 109.31 566.8C101.212 560.293 94.8394 551.895 90.7518 542.345C86.4139 531.878 86.1269 520.464 88.2427 509.44C90.513 497.638 94.8665 486.118 100.244 475.398C105.746 464.406 112.573 454.129 120.572 444.795C120.751 444.583 120.843 444.31 120.826 444.033C120.81 443.755 120.688 443.495 120.486 443.305C120.321 443.126 120.093 443.019 119.851 443.008C119.73 443.011 119.611 443.041 119.504 443.096C119.397 443.151 119.303 443.229 119.23 443.326C118.243 444.479 117.268 445.636 116.315 446.814C108.375 456.624 101.686 467.383 96.399 478.844C91.2842 489.896 87.1332 501.744 85.5338 513.86Z" fill="white"/>
<path d="M419.038 565.728C409.242 576.749 394.205 580.554 379.348 582.789C377.274 583.102 375.211 583.389 373.158 583.652C373.146 583.652 373.13 583.657 373.117 583.656C373.018 583.669 372.919 583.681 372.826 583.696C372.403 583.75 371.979 583.804 371.559 583.857L371.698 584.02C371.698 584.02 371.827 584.195 371.675 584.027C371.629 583.977 371.581 583.927 371.536 583.877C366.273 578.13 360.988 572.134 358.347 564.819C355.61 557.226 356.417 547.755 362.437 542.376C363.226 541.673 364.092 541.059 365.018 540.547C365.401 540.33 365.796 540.136 366.197 539.952C368.649 538.802 371.362 538.327 374.058 538.574C376.754 538.821 379.336 539.781 381.538 541.357C383.74 542.932 385.482 545.066 386.586 547.538C387.69 550.011 388.115 552.732 387.818 555.423C392.313 548.141 389.058 538.684 385.235 531.026C381.408 523.37 376.953 514.895 379.425 506.697C380.798 502.135 384.243 498.724 388.513 496.706C388.645 496.646 388.776 496.585 388.908 496.529C394.024 494.246 399.812 493.977 405.117 495.776C414.926 499.272 421.638 508.559 425.32 518.302C431.248 533.981 430.176 553.197 419.038 565.728Z" fill="#FF6C5F"/>
<path d="M409.468 540.61C409.927 544.258 409.852 547.953 409.244 551.58C408.658 554.8 407.593 557.914 406.085 560.819C402.931 566.773 398.394 571.882 392.855 575.717C388.668 578.634 384.13 581.01 379.348 582.789C377.274 583.102 375.211 583.389 373.158 583.652C373.146 583.652 373.13 583.657 373.117 583.656C373.018 583.669 372.92 583.681 372.826 583.696C372.403 583.75 371.979 583.804 371.56 583.857C371.56 583.857 371.827 584.195 371.675 584.027C371.63 583.977 371.581 583.927 371.536 583.877C374.411 579.365 376.162 574.23 376.644 568.902C377.126 563.575 376.324 558.209 374.305 553.255C372.254 548.346 369.072 543.992 365.018 540.547C365.401 540.33 365.796 540.136 366.197 539.952C367.749 541.311 369.178 542.805 370.466 544.416C375.081 550.157 377.725 557.232 378.007 564.593C378.229 571.261 376.545 577.855 373.151 583.599C373.535 583.484 373.922 583.365 374.299 583.243C381.462 580.993 388.397 577.795 394.301 573.1C399.362 569.153 403.375 564.023 405.986 558.16C408.761 551.733 409.041 544.685 407.834 537.855C406.44 530.518 404.049 523.405 400.728 516.716C397.428 509.876 393.304 503.465 388.447 497.627C388.337 497.494 388.284 497.325 388.296 497.153C388.308 496.982 388.386 496.822 388.513 496.706C388.616 496.597 388.758 496.534 388.908 496.529C388.983 496.532 389.056 496.551 389.121 496.586C389.187 496.621 389.244 496.671 389.289 496.731C389.888 497.452 390.48 498.176 391.058 498.912C395.874 505.045 399.91 511.752 403.072 518.879C406.132 525.753 408.589 533.11 409.468 540.61Z" fill="white"/>
</svg>
