<svg width="131" height="104" viewBox="0 0 131 104" fill="none" xmlns="http://www.w3.org/2000/svg">
<circle cx="3.47665" cy="3.47665" r="3.47665" fill="white"/>
<circle cx="3.47665" cy="58.3613" r="3.47665" fill="white"/>
<circle cx="3.47665" cy="30.919" r="3.47665" fill="white"/>
<circle cx="3.47665" cy="85.8036" r="3.47665" fill="white"/>
<circle cx="3.47665" cy="17.1978" r="3.47665" fill="white"/>
<circle cx="3.47665" cy="72.0824" r="3.47665" fill="white"/>
<circle cx="3.47665" cy="44.6402" r="3.47665" fill="white"/>
<circle cx="3.47665" cy="99.5248" r="3.47665" fill="white"/>
<circle cx="19.2374" cy="3.47665" r="3.47665" fill="white"/>
<circle cx="19.2375" cy="58.3613" r="3.47665" fill="white"/>
<circle cx="19.2375" cy="30.919" r="3.47665" fill="white"/>
<circle cx="19.2375" cy="85.8036" r="3.47665" fill="white"/>
<circle cx="19.2375" cy="17.1978" r="3.47665" fill="white"/>
<circle cx="19.2375" cy="72.0824" r="3.47665" fill="white"/>
<circle cx="19.2375" cy="44.6402" r="3.47665" fill="white"/>
<circle cx="19.2375" cy="99.5248" r="3.47665" fill="white"/>
<circle cx="34.9983" cy="3.47665" r="3.47665" fill="white"/>
<circle cx="34.9983" cy="58.3613" r="3.47665" fill="white"/>
<circle cx="34.9983" cy="30.919" r="3.47665" fill="white"/>
<circle cx="34.9983" cy="85.8036" r="3.47665" fill="white"/>
<circle cx="34.9983" cy="17.1978" r="3.47665" fill="white"/>
<circle cx="34.9983" cy="72.0824" r="3.47665" fill="white"/>
<circle cx="34.9983" cy="44.6402" r="3.47665" fill="white"/>
<circle cx="34.9983" cy="99.5248" r="3.47665" fill="white"/>
<circle cx="50.759" cy="3.47665" r="3.47665" fill="white"/>
<circle cx="81.3535" cy="3.94021" r="3.47665" fill="white"/>
<circle cx="111.763" cy="3.47665" r="3.47665" fill="white"/>
<circle cx="50.759" cy="58.3613" r="3.47665" fill="white"/>
<circle cx="81.3535" cy="58.8248" r="3.47665" fill="white"/>
<circle cx="111.763" cy="58.3613" r="3.47665" fill="white"/>
<circle cx="50.759" cy="30.919" r="3.47665" fill="white"/>
<circle cx="81.3535" cy="31.3825" r="3.47665" fill="white"/>
<circle cx="111.763" cy="30.919" r="3.47665" fill="white"/>
<circle cx="50.759" cy="85.8036" r="3.47665" fill="white"/>
<circle cx="81.3535" cy="86.2672" r="3.47665" fill="white"/>
<circle cx="111.763" cy="85.8036" r="3.47665" fill="white"/>
<circle cx="50.759" cy="17.1978" r="3.47665" fill="white"/>
<circle cx="81.3535" cy="17.6614" r="3.47665" fill="white"/>
<circle cx="111.763" cy="17.1978" r="3.47665" fill="white"/>
<circle cx="50.759" cy="72.0824" r="3.47665" fill="white"/>
<circle cx="81.3535" cy="72.546" r="3.47665" fill="white"/>
<circle cx="111.763" cy="72.0824" r="3.47665" fill="white"/>
<circle cx="50.759" cy="44.6402" r="3.47665" fill="white"/>
<circle cx="81.3535" cy="45.1037" r="3.47665" fill="white"/>
<circle cx="111.763" cy="44.6401" r="3.47665" fill="white"/>
<circle cx="50.759" cy="99.5248" r="3.47665" fill="white"/>
<circle cx="81.3535" cy="99.9883" r="3.47665" fill="white"/>
<circle cx="111.763" cy="99.5248" r="3.47665" fill="white"/>
<circle cx="66.5198" cy="3.47665" r="3.47665" fill="white"/>
<circle cx="97.1143" cy="3.94021" r="3.47665" fill="white"/>
<circle cx="127.523" cy="3.47665" r="3.47665" fill="white"/>
<circle cx="66.5198" cy="58.3613" r="3.47665" fill="white"/>
<circle cx="97.1143" cy="58.8248" r="3.47665" fill="white"/>
<circle cx="127.523" cy="58.3613" r="3.47665" fill="white"/>
<circle cx="66.5198" cy="30.919" r="3.47665" fill="white"/>
<circle cx="97.1143" cy="31.3825" r="3.47665" fill="white"/>
<circle cx="127.523" cy="30.919" r="3.47665" fill="white"/>
<circle cx="66.5198" cy="85.8036" r="3.47665" fill="white"/>
<circle cx="97.1143" cy="86.2672" r="3.47665" fill="white"/>
<circle cx="127.523" cy="85.8036" r="3.47665" fill="white"/>
<circle cx="66.5198" cy="17.1978" r="3.47665" fill="white"/>
<circle cx="97.1143" cy="17.6614" r="3.47665" fill="white"/>
<circle cx="127.523" cy="17.1978" r="3.47665" fill="white"/>
<circle cx="66.5198" cy="72.0824" r="3.47665" fill="white"/>
<circle cx="97.1143" cy="72.546" r="3.47665" fill="white"/>
<circle cx="127.523" cy="72.0824" r="3.47665" fill="white"/>
<circle cx="66.5198" cy="44.6402" r="3.47665" fill="white"/>
<circle cx="97.1143" cy="45.1037" r="3.47665" fill="white"/>
<circle cx="127.523" cy="44.6401" r="3.47665" fill="white"/>
<circle cx="66.5198" cy="99.5248" r="3.47665" fill="white"/>
<circle cx="97.1143" cy="99.9883" r="3.47665" fill="white"/>
<circle cx="127.523" cy="99.5248" r="3.47665" fill="white"/>
</svg>
