<svg xmlns="http://www.w3.org/2000/svg" viewBox="0 0 1440 320"><path fill="#925DF7" fill-opacity="1" d="M0,160L34.3,154.7C68.6,149,137,139,206,117.3C274.3,96,343,64,411,74.7C480,85,549,139,617,186.7C685.7,235,754,277,823,266.7C891.4,256,960,192,1029,186.7C1097.1,181,1166,235,1234,256C1302.9,277,1371,267,1406,261.3L1440,256L1440,0L1405.7,0C1371.4,0,1303,0,1234,0C1165.7,0,1097,0,1029,0C960,0,891,0,823,0C754.3,0,686,0,617,0C548.6,0,480,0,411,0C342.9,0,274,0,206,0C137.1,0,69,0,34,0L0,0Z"></path></svg>